# 3ds Max Wavefront OBJ Exporter v0.97b - (c)2007 guruware
# File Created: 05.06.2014 14:52:32

#
# object GeoSphere001
#

v  0.0000000000 15.0000000000 -0.0000000000
v  14.1421356201 -5.0000000000 -0.0000000000
v  -7.0710678101 -5.0000000000 -12.2474489212
v  -7.0710678101 -5.0000000000 12.2474489212
v  6.8955121040 13.3211078644 -0.0000000000
v  12.2474470139 8.6602525711 -0.0000000000
v  14.8577651978 2.0607819557 -0.0000000000
v  -3.4477560520 13.3211078644 -5.9716887474
v  -6.1237235069 8.6602525711 -10.6066017151
v  -7.4288825989 2.0607819557 -12.8672008514
v  -3.4477560520 13.3211078644 5.9716887474
v  -6.1237235069 8.6602525711 10.6066017151
v  -7.4288825989 2.0607819557 12.8672008514
v  11.4100084305 -7.6909451485 -5.9716887474
v  6.1237235069 -8.6602535248 -10.6066017151
v  -0.5333701968 -7.6909451485 -12.8672008514
v  11.4100084305 -7.6909451485 5.9716887474
v  6.1237235069 -8.6602535248 10.6066017151
v  -0.5333701968 -7.6909451485 12.8672008514
v  -10.8766384125 -7.6909451485 -6.8955125809
v  -12.2474470139 -8.6602535248 -0.0000000000
v  -10.8766384125 -7.6909451485 6.8955125809
v  4.3301262856 12.2474460602 -7.5000000000
v  11.1814861298 3.7751467228 -9.2586517334
v  2.4274857044 3.7751467228 -14.3127756119
v  -8.6602535248 12.2474470139 -0.0000000000
v  -13.6089706421 3.7751467228 -5.0541238785
v  -13.6089706421 3.7751467228 5.0541238785
v  4.3301262856 12.2474460602 7.5000000000
v  2.4274857044 3.7751467228 14.3127756119
v  11.1814861298 3.7751467228 9.2586517334
v  8.6602525711 -12.2474479675 -0.0000000000
v  -0.9770808816 -14.0890426636 5.0541238785
v  -0.9770808816 -14.0890426636 -5.0541238785
# 34 vertices

vn 0.0000000000 1.0000000000 -0.0000000000
vn 0.4596194923 0.8881159425 0.0000000108
vn -0.2298096418 0.8881160021 -0.3980420530
vn 0.4596194923 0.8881159425 0.0000000108
vn 0.8086912632 0.5882333517 -0.0000000218
vn 0.3029197752 0.7955868244 -0.5246724486
vn 0.4596194923 0.8881159425 0.0000000108
vn 0.3029197752 0.7955868244 -0.5246724486
vn -0.2298096418 0.8881160021 -0.3980420530
vn -0.2298096418 0.8881160021 -0.3980420530
vn 0.3029197752 0.7955868244 -0.5246724486
vn -0.4043456018 0.5882332325 -0.7003473043
vn 0.8086912632 0.5882333517 -0.0000000218
vn 0.9941918254 0.1076223552 -0.0000000027
vn 0.7372585535 0.2222995609 -0.6379911900
vn 0.8086912632 0.5882333517 -0.0000000218
vn 0.7372585535 0.2222995609 -0.6379911900
vn 0.3029197752 0.7955868244 -0.5246724486
vn 0.3029197752 0.7955868244 -0.5246724486
vn 0.7372585535 0.2222995609 -0.6379911900
vn 0.1838873774 0.2222994715 -0.9574802518
vn 0.3029197752 0.7955868244 -0.5246724486
vn 0.1838873774 0.2222994715 -0.9574802518
vn -0.4043456018 0.5882332325 -0.7003473043
vn -0.4043456018 0.5882332325 -0.7003473043
vn 0.1838873774 0.2222994715 -0.9574802518
vn -0.4970959425 0.1076222956 -0.8609954119
vn 0.9941918254 0.1076223552 -0.0000000027
vn 0.9428090453 -0.3333333731 -0.0000000110
vn 0.7721236944 -0.4739864767 -0.4232751429
vn 0.9941918254 0.1076223552 -0.0000000027
vn 0.7721236944 -0.4739864767 -0.4232751429
vn 0.7372585535 0.2222995609 -0.6379911900
vn 0.7372585535 0.2222995609 -0.6379911900
vn 0.7721236944 -0.4739864767 -0.4232751429
vn 0.4259701669 -0.5424389243 -0.7240921259
vn 0.7372585535 0.2222995609 -0.6379911900
vn 0.4259701669 -0.5424389243 -0.7240921259
vn 0.1838873774 0.2222994715 -0.9574802518
vn 0.1838873774 0.2222994715 -0.9574802518
vn 0.4259701669 -0.5424389243 -0.7240921259
vn -0.0407652296 -0.4895270765 -0.8710346818
vn 0.1838873774 0.2222994715 -0.9574802518
vn -0.0407652296 -0.4895270765 -0.8710346818
vn -0.4970959425 0.1076222956 -0.8609954119
vn -0.4970959425 0.1076222956 -0.8609954119
vn -0.0407652296 -0.4895270765 -0.8710346818
vn -0.4714044929 -0.3333333135 -0.8164966106
vn 0.0000000000 1.0000000000 -0.0000000000
vn -0.2298096418 0.8881160021 -0.3980420530
vn -0.2298096716 0.8881160021 0.3980420828
vn -0.2298096418 0.8881160021 -0.3980420530
vn -0.4043456018 0.5882332325 -0.7003473043
vn -0.6058395505 0.7955868840 -0.0000000055
vn -0.2298096418 0.8881160021 -0.3980420530
vn -0.6058395505 0.7955868840 -0.0000000055
vn -0.2298096716 0.8881160021 0.3980420828
vn -0.2298096716 0.8881160021 0.3980420828
vn -0.6058395505 0.7955868840 -0.0000000055
vn -0.4043456018 0.5882332325 0.7003472447
vn -0.4043456018 0.5882332325 -0.7003473043
vn -0.4970959425 0.1076222956 -0.8609954119
vn -0.9211459160 0.2222994268 -0.3194890022
vn -0.4043456018 0.5882332325 -0.7003473043
vn -0.9211459160 0.2222994268 -0.3194890022
vn -0.6058395505 0.7955868840 -0.0000000055
vn -0.6058395505 0.7955868840 -0.0000000055
vn -0.9211459160 0.2222994268 -0.3194890022
vn -0.9211459160 0.2222994268 0.3194889426
vn -0.6058395505 0.7955868840 -0.0000000055
vn -0.9211459160 0.2222994268 0.3194889426
vn -0.4043456018 0.5882332325 0.7003472447
vn -0.4043456018 0.5882332325 0.7003472447
vn -0.9211459160 0.2222994268 0.3194889426
vn -0.4970959425 0.1076223180 0.8609954119
vn -0.4970959425 0.1076222956 -0.8609954119
vn -0.4714044929 -0.3333333135 -0.8164966106
vn -0.7269893289 -0.5140590668 -0.4552250504
vn -0.4970959425 0.1076222956 -0.8609954119
vn -0.7269893289 -0.5140590668 -0.4552250504
vn -0.9211459160 0.2222994268 -0.3194890022
vn -0.9211459160 0.2222994268 -0.3194890022
vn -0.7269893289 -0.5140590668 -0.4552250504
vn -0.8164965510 -0.5773503184 -0.0000000000
vn -0.9211459160 0.2222994268 -0.3194890022
vn -0.8164965510 -0.5773503184 -0.0000000000
vn -0.9211459160 0.2222994268 0.3194889426
vn -0.9211459160 0.2222994268 0.3194889426
vn -0.8164965510 -0.5773503184 -0.0000000000
vn -0.7269892693 -0.5140590668 0.4552250504
vn -0.9211459160 0.2222994268 0.3194889426
vn -0.7269892693 -0.5140590668 0.4552250504
vn -0.4970959425 0.1076223180 0.8609954119
vn -0.4970959425 0.1076223180 0.8609954119
vn -0.7269892693 -0.5140590668 0.4552250504
vn -0.4714044929 -0.3333333135 0.8164966106
vn 0.0000000000 1.0000000000 -0.0000000000
vn -0.2298096716 0.8881160021 0.3980420828
vn 0.4596194923 0.8881159425 0.0000000108
vn -0.2298096716 0.8881160021 0.3980420828
vn -0.4043456018 0.5882332325 0.7003472447
vn 0.3029197752 0.7955868244 0.5246724486
vn -0.2298096716 0.8881160021 0.3980420828
vn 0.3029197752 0.7955868244 0.5246724486
vn 0.4596194923 0.8881159425 0.0000000108
vn 0.4596194923 0.8881159425 0.0000000108
vn 0.3029197752 0.7955868244 0.5246724486
vn 0.8086912632 0.5882333517 -0.0000000218
vn -0.4043456018 0.5882332325 0.7003472447
vn -0.4970959425 0.1076223180 0.8609954119
vn 0.1838873625 0.2222994417 0.9574802518
vn -0.4043456018 0.5882332325 0.7003472447
vn 0.1838873625 0.2222994417 0.9574802518
vn 0.3029197752 0.7955868244 0.5246724486
vn 0.3029197752 0.7955868244 0.5246724486
vn 0.1838873625 0.2222994417 0.9574802518
vn 0.7372584939 0.2222995758 0.6379911900
vn 0.3029197752 0.7955868244 0.5246724486
vn 0.7372584939 0.2222995758 0.6379911900
vn 0.8086912632 0.5882333517 -0.0000000218
vn 0.8086912632 0.5882333517 -0.0000000218
vn 0.7372584939 0.2222995758 0.6379911900
vn 0.9941918254 0.1076223552 -0.0000000027
vn -0.4970959425 0.1076223180 0.8609954119
vn -0.4714044929 -0.3333333135 0.8164966106
vn -0.0407652110 -0.4895270765 0.8710346818
vn -0.4970959425 0.1076223180 0.8609954119
vn -0.0407652110 -0.4895270765 0.8710346818
vn 0.1838873625 0.2222994417 0.9574802518
vn 0.1838873625 0.2222994417 0.9574802518
vn -0.0407652110 -0.4895270765 0.8710346818
vn 0.4259701669 -0.5424389243 0.7240921259
vn 0.1838873625 0.2222994417 0.9574802518
vn 0.4259701669 -0.5424389243 0.7240921259
vn 0.7372584939 0.2222995758 0.6379911900
vn 0.7372584939 0.2222995758 0.6379911900
vn 0.4259701669 -0.5424389243 0.7240921259
vn 0.7721236944 -0.4739864767 0.4232751429
vn 0.7372584939 0.2222995758 0.6379911900
vn 0.7721236944 -0.4739864767 0.4232751429
vn 0.9941918254 0.1076223552 -0.0000000027
vn 0.9941918254 0.1076223552 -0.0000000027
vn 0.7721236944 -0.4739864767 0.4232751429
vn 0.9428090453 -0.3333333731 -0.0000000110
vn 0.9428090453 -0.3333333731 -0.0000000110
vn 0.7721236944 -0.4739864767 0.4232751429
vn 0.7721236944 -0.4739864767 -0.4232751429
vn 0.7721236944 -0.4739864767 0.4232751429
vn 0.4259701669 -0.5424389243 0.7240921259
vn 0.5481399894 -0.8363866210 -0.0000000166
vn 0.7721236944 -0.4739864767 0.4232751429
vn 0.5481399894 -0.8363866210 -0.0000000166
vn 0.7721236944 -0.4739864767 -0.4232751429
vn 0.7721236944 -0.4739864767 -0.4232751429
vn 0.5481399894 -0.8363866210 -0.0000000166
vn 0.4259701669 -0.5424389243 -0.7240921259
vn 0.4259701669 -0.5424389243 0.7240921259
vn -0.0407652110 -0.4895270765 0.8710346818
vn -0.0974626914 -0.9425644875 0.3194890022
vn 0.4259701669 -0.5424389243 0.7240921259
vn -0.0974626914 -0.9425644875 0.3194890022
vn 0.5481399894 -0.8363866210 -0.0000000166
vn 0.5481399894 -0.8363866210 -0.0000000166
vn -0.0974626914 -0.9425644875 0.3194890022
vn -0.0974626765 -0.9425644875 -0.3194889724
vn 0.5481399894 -0.8363866210 -0.0000000166
vn -0.0974626765 -0.9425644875 -0.3194889724
vn 0.4259701669 -0.5424389243 -0.7240921259
vn 0.4259701669 -0.5424389243 -0.7240921259
vn -0.0974626765 -0.9425644875 -0.3194889724
vn -0.0407652296 -0.4895270765 -0.8710346818
vn -0.0407652110 -0.4895270765 0.8710346818
vn -0.4714044929 -0.3333333135 0.8164966106
vn -0.7269892693 -0.5140590668 0.4552250504
vn -0.0407652110 -0.4895270765 0.8710346818
vn -0.7269892693 -0.5140590668 0.4552250504
vn -0.0974626914 -0.9425644875 0.3194890022
vn -0.0974626914 -0.9425644875 0.3194890022
vn -0.7269892693 -0.5140590668 0.4552250504
vn -0.8164965510 -0.5773503184 -0.0000000000
vn -0.0974626914 -0.9425644875 0.3194890022
vn -0.8164965510 -0.5773503184 -0.0000000000
vn -0.0974626765 -0.9425644875 -0.3194889724
vn -0.0974626765 -0.9425644875 -0.3194889724
vn -0.8164965510 -0.5773503184 -0.0000000000
vn -0.7269893289 -0.5140590668 -0.4552250504
vn -0.0974626765 -0.9425644875 -0.3194889724
vn -0.7269893289 -0.5140590668 -0.4552250504
vn -0.0407652296 -0.4895270765 -0.8710346818
vn -0.0407652296 -0.4895270765 -0.8710346818
vn -0.7269893289 -0.5140590668 -0.4552250504
vn -0.4714044929 -0.3333333135 -0.8164966106
# 192 vertex normals

vt 0.3333333433 1.0000000000 15.0000000000
vt 0.5000000000 0.3918265402 15.0000000000
vt 0.8333333135 0.3918265402 15.0000000000
vt 0.1666666716 0.3918265402 15.0000000000
vt 0.5000000000 0.8479567170 15.0000000000
vt 0.5000000000 0.6959131956 14.9999980927
vt 0.5000000000 0.5438698530 15.0000009537
vt 0.8333333135 0.8479567170 15.0000000000
vt 0.8333333135 0.6959131956 14.9999990463
vt 0.8333333135 0.5438698530 14.9999990463
vt 0.1666666716 0.8479567170 15.0000000000
vt 0.1666667014 0.6959131956 14.9999990463
vt 0.1666666716 0.5438698530 14.9999990463
vt 0.5767398477 0.3286343217 15.0000000000
vt 0.6666666865 0.3040867150 14.9999990463
vt 0.7565935254 0.3286343217 14.9999990463
vt 0.4232601523 0.3286343217 15.0000000000
vt 0.3333333433 0.3040867150 14.9999990463
vt 0.2434064895 0.3286343217 14.9999990463
vt 0.9100731611 0.3286343217 14.9999990463
vt 1.0000000000 0.3040867150 14.9999980927
vt 0.0899268389 0.3286343217 14.9999990463
vt 0.6666666865 0.8040867448 14.9999980927
vt 0.6100719571 0.5809818506 15.0000000000
vt 0.7232612967 0.5809818506 14.9999990463
vt 1.0000000000 0.8040867448 14.9999980927
vt 0.9434052706 0.5809818506 15.0000000000
vt 0.0565946810 0.5809818506 15.0000000000
vt 0.3333333433 0.8040867448 14.9999980927
vt 0.2767386734 0.5809818506 14.9999990463
vt 0.3899280131 0.5809818506 15.0000000000
vt 0.5000000000 0.1959132999 14.9999990463
vt 0.2196065485 0.1115041971 14.9999990463
vt 0.7803934216 0.1115041971 14.9999990463
vt 0.6666666269 1.0000000000 15.0000000000
vt -0.0000000075 1.0000000000 15.0000000000
vt -0.1666666865 0.8479567170 15.0000000000
vt -0.1666666865 0.8479567170 15.0000000000
vt 0.0000000000 0.8040867448 14.9999980927
vt 0.0000000000 0.8040867448 14.9999980927
vt 0.0000000000 0.8040867448 14.9999980927
vt -0.0565947294 0.5809818506 15.0000000000
vt 0.0000000000 0.8040867448 14.9999980927
vt -0.0565947294 0.5809818506 15.0000000000
vt 0.0000000000 0.3040867150 14.9999980927
vt 0.0000000000 0.3040867150 14.9999980927
vt -0.2196065784 0.1115041971 14.9999990463
vt 0.0000000000 0.3040867150 14.9999980927
vt 0.0000000000 0.3040867150 14.9999980927
vt -0.2196065784 0.1115041971 14.9999990463
# 50 texture coords

g GeoSphere001
f 1/35/1 5/5/2 8/8/3 
f 5/5/4 6/6/5 23/23/6 
f 5/5/7 23/23/8 8/8/9 
f 8/8/10 23/23/11 9/9/12 
f 6/6/13 7/7/14 24/24/15 
f 6/6/16 24/24/17 23/23/18 
f 23/23/19 24/24/20 25/25/21 
f 23/23/22 25/25/23 9/9/24 
f 9/9/25 25/25/26 10/10/27 
f 7/7/28 2/2/29 14/14/30 
f 7/7/31 14/14/32 24/24/33 
f 24/24/34 14/14/35 15/15/36 
f 24/24/37 15/15/38 25/25/39 
f 25/25/40 15/15/41 16/16/42 
f 25/25/43 16/16/44 10/10/45 
f 10/10/46 16/16/47 3/3/48 
f 1/36/49 8/37/50 11/11/51 
f 8/8/52 9/9/53 26/26/54 
f 8/38/55 26/39/56 11/11/57 
f 11/11/58 26/40/59 12/12/60 
f 9/9/61 10/10/62 27/27/63 
f 9/9/64 27/27/65 26/26/66 
f 26/41/67 27/42/68 28/28/69 
f 26/43/70 28/28/71 12/12/72 
f 12/12/73 28/28/74 13/13/75 
f 10/10/76 3/3/77 20/20/78 
f 10/10/79 20/20/80 27/27/81 
f 27/27/82 20/20/83 21/21/84 
f 27/44/85 21/45/86 28/28/87 
f 28/28/88 21/46/89 22/22/90 
f 28/28/91 22/22/92 13/13/93 
f 13/13/94 22/22/95 4/4/96 
f 1/1/97 11/11/98 5/5/99 
f 11/11/100 12/12/101 29/29/102 
f 11/11/103 29/29/104 5/5/105 
f 5/5/106 29/29/107 6/6/108 
f 12/12/109 13/13/110 30/30/111 
f 12/12/112 30/30/113 29/29/114 
f 29/29/115 30/30/116 31/31/117 
f 29/29/118 31/31/119 6/6/120 
f 6/6/121 31/31/122 7/7/123 
f 13/13/124 4/4/125 19/19/126 
f 13/13/127 19/19/128 30/30/129 
f 30/30/130 19/19/131 18/18/132 
f 30/30/133 18/18/134 31/31/135 
f 31/31/136 18/18/137 17/17/138 
f 31/31/139 17/17/140 7/7/141 
f 7/7/142 17/17/143 2/2/144 
f 2/2/145 17/17/146 14/14/147 
f 17/17/148 18/18/149 32/32/150 
f 17/17/151 32/32/152 14/14/153 
f 14/14/154 32/32/155 15/15/156 
f 18/18/157 19/19/158 33/33/159 
f 18/18/160 33/33/161 32/32/162 
f 32/32/163 33/33/164 34/47/165 
f 32/32/166 34/34/167 15/15/168 
f 15/15/169 34/34/170 16/16/171 
f 19/19/172 4/4/173 22/22/174 
f 19/19/175 22/22/176 33/33/177 
f 33/33/178 22/22/179 21/48/180 
f 33/33/181 21/49/182 34/50/183 
f 34/34/184 21/21/185 20/20/186 
f 34/34/187 20/20/188 16/16/189 
f 16/16/190 20/20/191 3/3/192 
# 64 faces

